<svg width="73" height="23" viewBox="0 0 73 23" fill="none" xmlns="http://www.w3.org/2000/svg">
<path d="M10.7109 13.6055C10.7109 13.2539 10.6562 12.9414 10.5469 12.668C10.4453 12.3945 10.2617 12.1445 9.99609 11.918C9.73047 11.6914 9.35547 11.4727 8.87109 11.2617C8.39453 11.043 7.78516 10.8203 7.04297 10.5938C6.23047 10.3438 5.48047 10.0664 4.79297 9.76172C4.11328 9.44922 3.51953 9.08984 3.01172 8.68359C2.50391 8.26953 2.10938 7.79688 1.82812 7.26562C1.54688 6.72656 1.40625 6.10547 1.40625 5.40234C1.40625 4.70703 1.55078 4.07422 1.83984 3.50391C2.13672 2.93359 2.55469 2.44141 3.09375 2.02734C3.64062 1.60547 4.28516 1.28125 5.02734 1.05469C5.76953 0.820312 6.58984 0.703125 7.48828 0.703125C8.75391 0.703125 9.84375 0.9375 10.7578 1.40625C11.6797 1.875 12.3867 2.50391 12.8789 3.29297C13.3789 4.08203 13.6289 4.95312 13.6289 5.90625H10.7109C10.7109 5.34375 10.5898 4.84766 10.3477 4.41797C10.1133 3.98047 9.75391 3.63672 9.26953 3.38672C8.79297 3.13672 8.1875 3.01172 7.45312 3.01172C6.75781 3.01172 6.17969 3.11719 5.71875 3.32812C5.25781 3.53906 4.91406 3.82422 4.6875 4.18359C4.46094 4.54297 4.34766 4.94922 4.34766 5.40234C4.34766 5.72266 4.42188 6.01562 4.57031 6.28125C4.71875 6.53906 4.94531 6.78125 5.25 7.00781C5.55469 7.22656 5.9375 7.43359 6.39844 7.62891C6.85938 7.82422 7.40234 8.01172 8.02734 8.19141C8.97266 8.47266 9.79688 8.78516 10.5 9.12891C11.2031 9.46484 11.7891 9.84766 12.2578 10.2773C12.7266 10.707 13.0781 11.1953 13.3125 11.7422C13.5469 12.2812 13.6641 12.8945 13.6641 13.582C13.6641 14.3008 13.5195 14.9492 13.2305 15.5273C12.9414 16.0977 12.5273 16.5859 11.9883 16.9922C11.457 17.3906 10.8164 17.6992 10.0664 17.918C9.32422 18.1289 8.49609 18.2344 7.58203 18.2344C6.76172 18.2344 5.95312 18.125 5.15625 17.9062C4.36719 17.6875 3.64844 17.3555 3 16.9102C2.35156 16.457 1.83594 15.8945 1.45312 15.2227C1.07031 14.543 0.878906 13.75 0.878906 12.8438H3.82031C3.82031 13.3984 3.91406 13.8711 4.10156 14.2617C4.29688 14.6523 4.56641 14.9727 4.91016 15.2227C5.25391 15.4648 5.65234 15.6445 6.10547 15.7617C6.56641 15.8789 7.05859 15.9375 7.58203 15.9375C8.26953 15.9375 8.84375 15.8398 9.30469 15.6445C9.77344 15.4492 10.125 15.1758 10.3594 14.8242C10.5938 14.4727 10.7109 14.0664 10.7109 13.6055ZM19.0078 5.32031V18H16.1719V5.32031H19.0078ZM15.9844 1.99219C15.9844 1.5625 16.125 1.20703 16.4062 0.925781C16.6953 0.636719 17.0938 0.492188 17.6016 0.492188C18.1016 0.492188 18.4961 0.636719 18.7852 0.925781C19.0742 1.20703 19.2188 1.5625 19.2188 1.99219C19.2188 2.41406 19.0742 2.76562 18.7852 3.04688C18.4961 3.32812 18.1016 3.46875 17.6016 3.46875C17.0938 3.46875 16.6953 3.32812 16.4062 3.04688C16.125 2.76562 15.9844 2.41406 15.9844 1.99219ZM30.2227 5.32031H32.7891V17.6484C32.7891 18.7891 32.5469 19.7578 32.0625 20.5547C31.5781 21.3516 30.9023 21.957 30.0352 22.3711C29.168 22.793 28.1641 23.0039 27.0234 23.0039C26.5391 23.0039 26 22.9336 25.4062 22.793C24.8203 22.6523 24.25 22.4258 23.6953 22.1133C23.1484 21.8086 22.6914 21.4062 22.3242 20.9062L23.6484 19.2422C24.1016 19.7812 24.6016 20.1758 25.1484 20.4258C25.6953 20.6758 26.2695 20.8008 26.8711 20.8008C27.5195 20.8008 28.0703 20.6797 28.5234 20.4375C28.9844 20.2031 29.3398 19.8555 29.5898 19.3945C29.8398 18.9336 29.9648 18.3711 29.9648 17.707V8.19141L30.2227 5.32031ZM21.6094 11.8008V11.5547C21.6094 10.5938 21.7266 9.71875 21.9609 8.92969C22.1953 8.13281 22.5312 7.44922 22.9688 6.87891C23.4062 6.30078 23.9375 5.85938 24.5625 5.55469C25.1875 5.24219 25.8945 5.08594 26.6836 5.08594C27.5039 5.08594 28.2031 5.23438 28.7812 5.53125C29.3672 5.82812 29.8555 6.25391 30.2461 6.80859C30.6367 7.35547 30.9414 8.01172 31.1602 8.77734C31.3867 9.53516 31.5547 10.3789 31.6641 11.3086V12.0938C31.5625 13 31.3906 13.8281 31.1484 14.5781C30.9062 15.3281 30.5859 15.9766 30.1875 16.5234C29.7891 17.0703 29.2969 17.4922 28.7109 17.7891C28.1328 18.0859 27.4492 18.2344 26.6602 18.2344C25.8867 18.2344 25.1875 18.0742 24.5625 17.7539C23.9453 17.4336 23.4141 16.9844 22.9688 16.4062C22.5312 15.8281 22.1953 15.1484 21.9609 14.3672C21.7266 13.5781 21.6094 12.7227 21.6094 11.8008ZM24.4336 11.5547V11.8008C24.4336 12.3789 24.4883 12.918 24.5977 13.418C24.7148 13.918 24.8906 14.3594 25.125 14.7422C25.3672 15.1172 25.6719 15.4141 26.0391 15.6328C26.4141 15.8438 26.8555 15.9492 27.3633 15.9492C28.0273 15.9492 28.5703 15.8086 28.9922 15.5273C29.4219 15.2461 29.75 14.8672 29.9766 14.3906C30.2109 13.9062 30.375 13.3672 30.4688 12.7734V10.6523C30.4219 10.1914 30.3242 9.76172 30.1758 9.36328C30.0352 8.96484 29.8438 8.61719 29.6016 8.32031C29.3594 8.01562 29.0547 7.78125 28.6875 7.61719C28.3203 7.44531 27.8867 7.35938 27.3867 7.35938C26.8789 7.35938 26.4375 7.46875 26.0625 7.6875C25.6875 7.90625 25.3789 8.20703 25.1367 8.58984C24.9023 8.97266 24.7266 9.41797 24.6094 9.92578C24.4922 10.4336 24.4336 10.9766 24.4336 11.5547ZM38.5195 8.02734V18H35.6953V5.32031H38.3555L38.5195 8.02734ZM38.0156 11.1914L37.1016 11.1797C37.1094 10.2812 37.2344 9.45703 37.4766 8.70703C37.7266 7.95703 38.0703 7.3125 38.5078 6.77344C38.9531 6.23438 39.4844 5.82031 40.1016 5.53125C40.7188 5.23438 41.4062 5.08594 42.1641 5.08594C42.7734 5.08594 43.3242 5.17188 43.8164 5.34375C44.3164 5.50781 44.7422 5.77734 45.0938 6.15234C45.4531 6.52734 45.7266 7.01562 45.9141 7.61719C46.1016 8.21094 46.1953 8.94141 46.1953 9.80859V18H43.3594V9.79688C43.3594 9.1875 43.2695 8.70703 43.0898 8.35547C42.918 7.99609 42.6641 7.74219 42.3281 7.59375C42 7.4375 41.5898 7.35938 41.0977 7.35938C40.6133 7.35938 40.1797 7.46094 39.7969 7.66406C39.4141 7.86719 39.0898 8.14453 38.8242 8.49609C38.5664 8.84766 38.3672 9.25391 38.2266 9.71484C38.0859 10.1758 38.0156 10.668 38.0156 11.1914ZM58.4766 0.9375V18H55.5352V0.9375H58.4766ZM64.6523 8.02734V18H61.8281V5.32031H64.4883L64.6523 8.02734ZM64.1484 11.1914L63.2344 11.1797C63.2422 10.2812 63.3672 9.45703 63.6094 8.70703C63.8594 7.95703 64.2031 7.3125 64.6406 6.77344C65.0859 6.23438 65.6172 5.82031 66.2344 5.53125C66.8516 5.23438 67.5391 5.08594 68.2969 5.08594C68.9062 5.08594 69.457 5.17188 69.9492 5.34375C70.4492 5.50781 70.875 5.77734 71.2266 6.15234C71.5859 6.52734 71.8594 7.01562 72.0469 7.61719C72.2344 8.21094 72.3281 8.94141 72.3281 9.80859V18H69.4922V9.79688C69.4922 9.1875 69.4023 8.70703 69.2227 8.35547C69.0508 7.99609 68.7969 7.74219 68.4609 7.59375C68.1328 7.4375 67.7227 7.35938 67.2305 7.35938C66.7461 7.35938 66.3125 7.46094 65.9297 7.66406C65.5469 7.86719 65.2227 8.14453 64.957 8.49609C64.6992 8.84766 64.5 9.25391 64.3594 9.71484C64.2188 10.1758 64.1484 10.668 64.1484 11.1914Z" fill="url(#paint0_linear_6446_8757)"/>
<defs>
<linearGradient id="paint0_linear_6446_8757" x1="0" y1="-4" x2="36.465" y2="80.8515" gradientUnits="userSpaceOnUse">
<stop stop-color="#FFE500"/>
<stop offset="0.0998634" stop-color="#FF9452"/>
<stop offset="0.20103" stop-color="#FF6F7E"/>
<stop offset="0.291745" stop-color="#F63FB8"/>
<stop offset="0.427243" stop-color="#C037EB"/>
<stop offset="0.541668" stop-color="#8A46FF"/>
<stop offset="0.654058" stop-color="#4558D8"/>
<stop offset="0.760167" stop-color="#4829CC"/>
<stop offset="1" stop-color="#2958A6"/>
</linearGradient>
</defs>
</svg>
